0
SECTION
2
HEADER
9
$INSUNITS
70
4
9
$ACADVER
1
AC1014
9
$HANDSEED
5
FFFF
0
ENDSEC
0
SECTION
2
TABLES
0
TABLE
2
VPORT
5
8
100
AcDbSymbolTable
0
ENDTAB
0
TABLE
2
LTYPE
5
5
100
AcDbSymbolTable
70
2
0
LTYPE
5
14
100
AcDbSymbolTableRecord
100
AcDbLinetypeTableRecord
2
BYBLOCK
70
0
0
LTYPE
5
15
100
AcDbSymbolTableRecord
100
AcDbLinetypeTableRecord
2
BYLAYER
70
0
0
ENDTAB
0
TABLE
2
LAYER
5
2
100
AcDbSymbolTable
70
3
0
LAYER
5
50
100
AcDbSymbolTableRecord
100
AcDbLayerTableRecord
2
0
70
0
6
CONTINUOUS
0
LAYER
5
51
100
AcDbSymbolTableRecord
100
AcDbLayerTableRecord
2
CUTOUTS
70
0
62
1
6
CONTINUOUS
0
LAYER
5
52
100
AcDbSymbolTableRecord
100
AcDbLayerTableRecord
2
PERIMETER
70
0
62
5
6
CONTINUOUS
0
ENDTAB
0
TABLE
2
STYLE
5
3
100
AcDbSymbolTable
70
1
0
STYLE
5
11
100
AcDbSymbolTableRecord
100
AcDbTextStyleTableRecord
2
STANDARD
70
0
0
ENDTAB
0
TABLE
2
VIEW
5
6
100
AcDbSymbolTable
0
ENDTAB
0
TABLE
2
UCS
5
7
100
AcDbSymbolTable
0
ENDTAB
0
TABLE
2
APPID
5
9
100
AcDbSymbolTable
70
1
0
APPID
5
12
100
AcDbSymbolTableRecord
100
AcDbRegAppTableRecord
2
ACAD
70
0
0
ENDTAB
0
TABLE
2
DIMSTYLE
5
A
100
AcDbSymbolTable
0
ENDTAB
0
TABLE
2
BLOCK_RECORD
5
1
100
AcDbSymbolTable
70
2
0
BLOCK_RECORD
5
1F
100
AcDbSymbolTableRecord
100
AcDbBlockTableRecord
2
*MODEL_SPACE
0
BLOCK_RECORD
5
1B
100
AcDbSymbolTableRecord
100
AcDbBlockTableRecord
2
*PAPER_SPACE
0
ENDTAB
0
ENDSEC
0
SECTION
2
BLOCKS
0
BLOCK
5
20
100
AcDbEntity
100
AcDbBlockBegin
2
*MODEL_SPACE
0
ENDBLK
5
21
100
AcDbEntity
100
AcDbBlockEnd
0
BLOCK
5
1C
100
AcDbEntity
100
AcDbBlockBegin
2
*PAPER_SPACE
0
ENDBLK
5
1D
100
AcDbEntity
100
AcDbBlockEnd
0
ENDSEC
0
SECTION
2
ENTITIES
0
LINE
5
100
100
AcDbEntity
8
CUTOUTS
100
AcDbLine
10
-15.381989843563684
20
-4.805353258514562
30
0
11
-16.843110852861216
21
-2.7873295694151023
31
0
0
ARC
5
101
100
AcDbEntity
8
CUTOUTS
100
AcDbCircle
10
-13.66887899068298
20
-3.5650000000666449
30
0
40
2.1150000000000095
210
0
220
0
230
1
100
AcDbArc
50
215.90587695007841
51
269.99999999999994
0
LINE
5
102
100
AcDbEntity
8
CUTOUTS
100
AcDbLine
10
0.8600000000002872
20
-5.680000000066654
30
0
11
-13.668878990682982
21
-5.680000000066654
31
0
0
ARC
5
103
100
AcDbEntity
8
CUTOUTS
100
AcDbCircle
10
0.86000000000028609
20
-7.5650000000666529
30
0
40
1.885
210
0
220
0
230
1
100
AcDbArc
50
0
51
89.999999999999972
0
LINE
5
104
100
AcDbEntity
8
CUTOUTS
100
AcDbLine
10
2.7450000000002861
20
-12.665000000011354
30
0
11
2.7450000000002861
21
-7.5650000000666529
31
0
0
ARC
5
105
100
AcDbEntity
8
CUTOUTS
100
AcDbCircle
10
0.86000000000028809
20
-12.665000000011354
30
0
40
1.8849999999999989
210
0
220
0
230
1
100
AcDbArc
50
-90
51
0
0
LINE
5
106
100
AcDbEntity
8
CUTOUTS
100
AcDbLine
10
-21.689999999993894
20
-14.550000000011352
30
0
11
0.8600000000002872
21
-14.550000000011352
31
0
0
ARC
5
107
100
AcDbEntity
8
CUTOUTS
100
AcDbCircle
10
-21.689999999993894
20
-12.665000000011354
30
0
40
1.8849999999999989
210
0
220
0
230
1
100
AcDbArc
50
180
51
270
0
LINE
5
108
100
AcDbEntity
8
CUTOUTS
100
AcDbLine
10
-23.574999999993906
20
-6.2130236890986801
30
0
11
-23.574999999993899
21
-12.665000000011354
31
0
0
ARC
5
109
100
AcDbEntity
8
CUTOUTS
100
AcDbCircle
10
-25.689999999993933
20
-6.2130236890986899
30
0
40
2.1150000000000357
210
0
220
-0
230
1
100
AcDbArc
50
0
51
35.905876950233932
0
LINE
5
10A
100
AcDbEntity
8
CUTOUTS
100
AcDbLine
10
-25.656815110035396
20
-2.652444817906523
30
0
11
-23.976889147116573
21
-4.9726704306461045
31
0
0
ARC
5
10B
100
AcDbEntity
8
CUTOUTS
100
AcDbCircle
10
-24.130000000024125
20
-1.5469763109641486
30
0
40
1.8850000000000344
210
0
220
0
230
1
100
AcDbArc
50
180
51
215.90587695023385
0
LINE
5
10C
100
AcDbEntity
8
CUTOUTS
100
AcDbLine
10
-26.015000000024166
20
25.892949192436141
30
0
11
-26.015000000024155
21
-1.5469763109641654
31
0
0
ARC
5
10D
100
AcDbEntity
8
CUTOUTS
100
AcDbCircle
10
-24.130000000024168
20
25.892949192436149
30
0
40
1.8849999999999949
210
0
220
0
230
1
100
AcDbArc
50
138.59037789009898
51
180
0
ARC
5
10E
100
AcDbEntity
8
CUTOUTS
100
AcDbCircle
10
-27.129999999995039
20
28.538700503533725
30
0
40
2.1149999999999776
210
0
220
0
230
1
100
AcDbArc
50
-41.409622109901342
51
0
0
LINE
5
10F
100
AcDbEntity
8
CUTOUTS
100
AcDbLine
10
-25.014999999995062
20
33.847296158314784
30
0
11
-25.014999999995062
21
28.538700503533736
31
0
0
ARC
5
110
100
AcDbEntity
8
CUTOUTS
100
AcDbCircle
10
-25.129999999995057
20
33.847296158314776
30
0
40
0.11499999999999844
210
0
220
-0
230
1
100
AcDbArc
50
0
51
167.05950771152828
0
ARC
5
111
100
AcDbEntity
8
CUTOUTS
100
AcDbCircle
10
-26.665000000017773
20
34.199999999986915
30
0
40
1.4599999999999971
210
0
220
-0
230
1
100
AcDbArc
50
12.940492288472438
51
347.05950771152703
0
ARC
5
112
100
AcDbEntity
8
CUTOUTS
100
AcDbCircle
10
-25.129999999995061
20
34.552703841659039
30
0
40
0.11500000000000038
210
0
220
0
230
1
100
AcDbArc
50
192.94049228847476
51
360
0
LINE
5
113
100
AcDbEntity
8
CUTOUTS
100
AcDbLine
10
-25.014999999995062
20
36.560000000016011
30
0
11
-25.014999999995062
21
34.552703841659032
31
0
0
LINE
5
114
100
AcDbEntity
8
CUTOUTS
100
AcDbLine
10
-22.650000000048031
20
36.560000000016018
30
0
11
-25.014999999995062
21
36.560000000016011
31
0
0
ARC
5
115
100
AcDbEntity
8
CUTOUTS
100
AcDbCircle
10
-22.650000000048021
20
34.675000000016027
30
0
40
1.8849999999999945
210
0
220
0
230
1
100
AcDbArc
50
0
51
90.000000000000327
0
LINE
5
116
100
AcDbEntity
8
CUTOUTS
100
AcDbLine
10
-20.765000000048026
20
29.625000000021828
30
0
11
-20.765000000048026
21
34.675000000016013
31
0
0
ARC
5
117
100
AcDbEntity
8
CUTOUTS
100
AcDbCircle
10
-18.650000000048038
20
29.625000000021817
30
0
40
2.1149999999999936
210
0
220
0
230
1
100
AcDbArc
50
180
51
263.10789742162814
0
ARC
5
118
100
AcDbEntity
8
CUTOUTS
100
AcDbCircle
10
-19.129999999980523
20
25.653904433296582
30
0
40
1.8850000000000033
210
0
220
-0
230
1
100
AcDbArc
50
0
51
83.1078974216273
0
LINE
5
119
100
AcDbEntity
8
CUTOUTS
100
AcDbLine
10
-17.244999999980514
20
-1.5469763109671897
30
0
11
-17.244999999980514
21
25.653904433296589
31
0
0
ARC
5
11A
100
AcDbEntity
8
CUTOUTS
100
AcDbCircle
10
-15.129999999980505
20
-1.546976310967187
30
0
40
2.1150000000000069
210
0
220
0
230
1
100
AcDbArc
50
180
51
215.90587695007824
0
CIRCLE
5
11B
100
AcDbEntity
8
CUTOUTS
100
AcDbCircle
10
10.139999999982232
20
-6.545000000013097
30
0
40
2.3849999999999993
210
0
220
0
230
1
0
CIRCLE
5
11C
100
AcDbEntity
8
CUTOUTS
100
AcDbCircle
10
20.289999999982236
20
-6.545000000013097
30
0
40
2.3850000000000016
210
0
220
0
230
1
0
CIRCLE
5
11D
100
AcDbEntity
8
CUTOUTS
100
AcDbCircle
10
-12.790000000017763
20
31.624999999986887
30
0
40
2.3849999999999993
210
0
220
0
230
1
0
CIRCLE
5
11E
100
AcDbEntity
8
CUTOUTS
100
AcDbCircle
10
12.429999999982222
20
31.624999999986912
30
0
40
2.3849999999999993
210
0
220
0
230
1
0
ARC
5
11F
100
AcDbEntity
8
CUTOUTS
100
AcDbCircle
10
18.949999999998532
20
25.570256013320879
30
0
40
1.8849999999999905
210
0
220
0
230
1
100
AcDbArc
50
98.626926558931416
51
180
0
ARC
5
120
100
AcDbEntity
8
CUTOUTS
100
AcDbCircle
10
18.349999999981073
20
29.524999999975272
30
0
40
2.1150000000000104
210
0
220
0
230
1
100
AcDbArc
50
278.62692655893176
51
360
0
LINE
5
121
100
AcDbEntity
8
CUTOUTS
100
AcDbLine
10
20.464999999981078
20
34.675000000016006
30
0
11
20.464999999981082
21
29.524999999975261
31
0
0
ARC
5
122
100
AcDbEntity
8
CUTOUTS
100
AcDbCircle
10
22.34999999998108
20
34.675000000016006
30
0
40
1.8850000000000033
210
0
220
-0
230
1
100
AcDbArc
50
90
51
180
0
LINE
5
123
100
AcDbEntity
8
CUTOUTS
100
AcDbLine
10
22.950000000013091
20
36.560000000016018
30
0
11
22.34999999998108
21
36.560000000016011
31
0
0
ARC
5
124
100
AcDbEntity
8
CUTOUTS
100
AcDbCircle
10
22.950000000013098
20
34.675000000016027
30
0
40
1.8849999999999945
210
0
220
0
230
1
100
AcDbArc
50
0
51
90.000000000000213
0
LINE
5
125
100
AcDbEntity
8
CUTOUTS
100
AcDbLine
10
24.835000000013089
20
28.43870050344669
30
0
11
24.835000000013089
21
34.675000000016013
31
0
0
ARC
5
126
100
AcDbEntity
8
CUTOUTS
100
AcDbCircle
10
26.950000000013077
20
28.438700503446693
30
0
40
2.1149999999999913
210
0
220
0
230
1
100
AcDbArc
50
180
51
221.40962210832586
0
ARC
5
127
100
AcDbEntity
8
CUTOUTS
100
AcDbCircle
10
23.949999999969428
20
25.792949192431593
30
0
40
1.8850000000000033
210
0
220
-0
230
1
100
AcDbArc
50
0
51
41.409622108325458
0
LINE
5
128
100
AcDbEntity
8
CUTOUTS
100
AcDbLine
10
25.83499999996944
20
-0.28500000002356973
30
0
11
25.834999999969437
21
25.7929491924316
31
0
0
ARC
5
129
100
AcDbEntity
8
CUTOUTS
100
AcDbCircle
10
23.949999999969439
20
-0.28500000002356962
30
0
40
1.885
210
0
220
0
230
1
100
AcDbArc
50
-89.999999999999901
51
0
0
LINE
5
12A
100
AcDbEntity
8
CUTOUTS
100
AcDbLine
10
18.949999999998546
20
-2.1700000000235731
30
0
11
23.949999999969442
21
-2.1700000000235731
31
0
0
ARC
5
12B
100
AcDbEntity
8
CUTOUTS
100
AcDbCircle
10
18.949999999998546
20
-0.28500000002356946
30
0
40
1.8850000000000033
210
0
220
0
230
1
100
AcDbArc
50
180
51
270
0
LINE
5
12C
100
AcDbEntity
8
CUTOUTS
100
AcDbLine
10
17.064999999998541
20
25.570256013320876
30
0
11
17.064999999998548
21
-0.28500000002356973
31
0
0
CIRCLE
5
12D
100
AcDbEntity
8
CUTOUTS
100
AcDbCircle
10
26.664999999982246
20
-34.200000000013098
30
0
40
1.4599999999999991
210
0
220
0
230
1
0
CIRCLE
5
12E
100
AcDbEntity
8
CUTOUTS
100
AcDbCircle
10
26.664999999982246
20
34.199999999986908
30
0
40
1.4599999999999991
210
0
220
0
230
1
0
CIRCLE
5
12F
100
AcDbEntity
8
CUTOUTS
100
AcDbCircle
10
-26.665000000017756
20
-34.200000000013098
30
0
40
1.4599999999999991
210
0
220
0
230
1
0
LINE
5
130
100
AcDbEntity
8
CUTOUTS
100
AcDbLine
10
-2.8050000000427922
20
34.865000000017176
30
0
11
-2.8050000000427922
21
30.86500000000262
31
0
0
ARC
5
131
100
AcDbEntity
8
CUTOUTS
100
AcDbCircle
10
-0.92000000004279214
20
30.865000000002617
30
0
40
1.885
210
0
220
0
230
1
100
AcDbArc
50
180
51
270.00000000000011
0
LINE
5
132
100
AcDbEntity
8
CUTOUTS
100
AcDbLine
10
-0.92000000004278881
20
28.980000000002619
30
0
11
0.56000000000610228
21
28.980000000002619
31
0
0
ARC
5
133
100
AcDbEntity
8
CUTOUTS
100
AcDbCircle
10
0.56000000000610561
20
30.865000000002617
30
0
40
1.8849999999999989
210
0
220
0
230
1
100
AcDbArc
50
-90.000000000000099
51
0
0
LINE
5
134
100
AcDbEntity
8
CUTOUTS
100
AcDbLine
10
2.4450000000061056
20
30.86500000000262
30
0
11
2.4450000000061056
21
34.865000000017176
31
0
0
ARC
5
135
100
AcDbEntity
8
CUTOUTS
100
AcDbCircle
10
0.56000000000610561
20
34.865000000017176
30
0
40
1.885
210
0
220
0
230
1
100
AcDbArc
50
0
51
90.000000000000114
0
LINE
5
136
100
AcDbEntity
8
CUTOUTS
100
AcDbLine
10
0.56000000000610228
20
36.750000000017174
30
0
11
-0.92000000004278881
21
36.750000000017174
31
0
0
ARC
5
137
100
AcDbEntity
8
CUTOUTS
100
AcDbCircle
10
-0.92000000004279159
20
34.865000000017176
30
0
40
1.8849999999999989
210
0
220
-0
230
1
100
AcDbArc
50
89.999999999999929
51
180
0
ARC
5
138
100
AcDbEntity
8
PERIMETER
100
AcDbCircle
10
-26.289999999967691
20
-33.824999999998553
30
0
40
5.1149999999999984
210
0
220
0
230
1
100
AcDbArc
50
180
51
270
0
LINE
5
139
100
AcDbEntity
8
PERIMETER
100
AcDbLine
10
-31.404999999967693
20
-33.824999999998553
30
0
11
-31.404999999967707
21
33.824999999998546
31
0
0
ARC
5
13A
100
AcDbEntity
8
PERIMETER
100
AcDbCircle
10
-26.289999999967712
20
33.824999999998546
30
0
40
5.1149999999999984
210
0
220
-0
230
1
100
AcDbArc
50
90
51
180
0
LINE
5
13B
100
AcDbEntity
8
PERIMETER
100
AcDbLine
10
-26.289999999967712
20
38.939999999998548
30
0
11
26.289999999967691
21
38.939999999998548
31
0
0
ARC
5
13C
100
AcDbEntity
8
PERIMETER
100
AcDbCircle
10
26.289999999967691
20
33.824999999998553
30
0
40
5.1149999999999984
210
0
220
0
230
1
100
AcDbArc
50
0
51
90
0
LINE
5
13D
100
AcDbEntity
8
PERIMETER
100
AcDbLine
10
31.404999999967696
20
33.824999999998546
30
0
11
31.404999999967703
21
-33.824999999998553
31
0
0
ARC
5
13E
100
AcDbEntity
8
PERIMETER
100
AcDbCircle
10
26.289999999967719
20
-33.824999999998568
30
0
40
5.1149999999999807
210
0
220
0
230
1
100
AcDbArc
50
-90.000000000000099
51
0
0
LINE
5
13F
100
AcDbEntity
8
PERIMETER
100
AcDbLine
10
26.289999999967712
20
-38.939999999998548
30
0
11
-26.289999999967691
21
-38.939999999998548
31
0
0
ENDSEC
0
SECTION
2
OBJECTS
0
DICTIONARY
5
C
100
AcDbDictionary
3
ACAD_GROUP
350
D
3
ACAD_MLINESTYLE
350
17
0
DICTIONARY
5
D
100
AcDbDictionary
0
DICTIONARY
5
1A
330
C
100
AcDbDictionary
0
DICTIONARY
5
17
100
AcDbDictionary
0
ENDSEC
0
EOF
